<svg width="28" height="28" viewBox="0 0 28 28" fill="none" xmlns="http://www.w3.org/2000/svg">
<path d="M22.1667 2.33337C21.8573 2.33337 21.5605 2.45629 21.3417 2.67508C21.1229 2.89388 21 3.19062 21 3.50004V9.87004L19.8334 10.6517V3.50004C19.8334 3.19062 19.7104 2.89388 19.4916 2.67508C19.2729 2.45629 18.9761 2.33337 18.6667 2.33337C18.3573 2.33337 18.0605 2.45629 17.8417 2.67508C17.6229 2.89388 17.5 3.19062 17.5 3.50004V10.6517L16.3334 9.87004V3.50004C16.3334 3.19062 16.2104 2.89388 15.9916 2.67508C15.7729 2.45629 15.4761 2.33337 15.1667 2.33337C14.8573 2.33337 14.5605 2.45629 14.3417 2.67508C14.1229 2.89388 14 3.19062 14 3.50004V10.5C14.001 10.6922 14.0495 10.8811 14.141 11.0501C14.2326 11.219 14.3645 11.3627 14.525 11.4684L17.5 13.4634V24.5C17.5 24.8095 17.6229 25.1062 17.8417 25.325C18.0605 25.5438 18.3573 25.6667 18.6667 25.6667C18.9761 25.6667 19.2729 25.5438 19.4916 25.325C19.7104 25.1062 19.8334 24.8095 19.8334 24.5V13.4634L22.8084 11.4684C22.9688 11.3627 23.1007 11.219 23.1923 11.0501C23.2839 10.8811 23.3324 10.6922 23.3334 10.5V3.50004C23.3334 3.19062 23.2104 2.89388 22.9916 2.67508C22.7729 2.45629 22.4761 2.33337 22.1667 2.33337ZM10.5 2.33337C8.95292 2.33337 7.46919 2.94796 6.37523 4.04192C5.28127 5.13588 4.66669 6.61961 4.66669 8.16671V15.1667C4.66669 15.4761 4.7896 15.7729 5.0084 15.9917C5.22719 16.2105 5.52393 16.3334 5.83335 16.3334H9.33335V24.5C9.33335 24.8095 9.45627 25.1062 9.67506 25.325C9.89386 25.5438 10.1906 25.6667 10.5 25.6667C10.8094 25.6667 11.1062 25.5438 11.325 25.325C11.5438 25.1062 11.6667 24.8095 11.6667 24.5V3.50004C11.6667 3.19062 11.5438 2.89388 11.325 2.67508C11.1062 2.45629 10.8094 2.33337 10.5 2.33337ZM9.33335 14H7.00002V8.16671C6.99964 7.44261 7.22385 6.73623 7.64175 6.1449C8.05965 5.55357 8.65067 5.10641 9.33335 4.86504V14Z" fill="#2C3E50"/>
</svg>
