<svg width="28" height="28" viewBox="0 0 28 28" fill="none" xmlns="http://www.w3.org/2000/svg">
<path d="M14 7.40837C13.3334 7.0666 12.5764 6.94243 11.8355 7.05335C11.0947 7.16427 10.4073 7.50469 9.86998 8.02671C9.21454 8.68296 8.84639 9.57254 8.84639 10.5C8.84639 11.4275 9.21454 12.3171 9.86998 12.9734L13.1716 16.3334C13.2801 16.4427 13.4091 16.5295 13.5513 16.5887C13.6935 16.648 13.846 16.6785 14 16.6785C14.154 16.6785 14.3065 16.648 14.4487 16.5887C14.5908 16.5295 14.7199 16.4427 14.8283 16.3334L18.13 13.0317C18.7854 12.3755 19.1536 11.4859 19.1536 10.5584C19.1536 9.63087 18.7854 8.74129 18.13 8.08504C17.5994 7.5535 16.9152 7.20217 16.1741 7.08075C15.433 6.95932 14.6724 7.07393 14 7.40837ZM16.4733 11.3284L14 13.8017L11.5266 11.3284C11.4173 11.2199 11.3305 11.0909 11.2713 10.9487C11.212 10.8065 11.1815 10.6541 11.1815 10.5C11.1815 10.346 11.212 10.1935 11.2713 10.0514C11.3305 9.9092 11.4173 9.78016 11.5266 9.67171C11.7452 9.45441 12.0409 9.33245 12.3491 9.33245C12.6574 9.33245 12.9531 9.45441 13.1716 9.67171C13.2801 9.78106 13.4091 9.86785 13.5513 9.92708C13.6935 9.98631 13.846 10.0168 14 10.0168C14.154 10.0168 14.3065 9.98631 14.4487 9.92708C14.5908 9.86785 14.7199 9.78106 14.8283 9.67171C15.0469 9.45441 15.3426 9.33245 15.6508 9.33245C15.959 9.33245 16.2547 9.45441 16.4733 9.67171C16.5827 9.78016 16.6695 9.9092 16.7287 10.0514C16.7879 10.1935 16.8184 10.346 16.8184 10.5C16.8184 10.6541 16.7879 10.8065 16.7287 10.9487C16.6695 11.0909 16.5827 11.2199 16.4733 11.3284ZM22.1666 2.33337H5.83331C4.90506 2.33337 4.01482 2.70212 3.35844 3.3585C2.70206 4.01488 2.33331 4.90512 2.33331 5.83337V17.5C2.33331 18.4283 2.70206 19.3185 3.35844 19.9749C4.01482 20.6313 4.90506 21 5.83331 21H19.355L23.6716 25.3284C23.7807 25.4365 23.9099 25.522 24.0521 25.5801C24.1942 25.6382 24.3464 25.6676 24.5 25.6667C24.653 25.6707 24.8049 25.6387 24.9433 25.5734C25.1564 25.4858 25.3388 25.3372 25.4675 25.1462C25.5962 24.9552 25.6655 24.7304 25.6666 24.5V5.83337C25.6666 4.90512 25.2979 4.01488 24.6415 3.3585C23.9851 2.70212 23.0949 2.33337 22.1666 2.33337ZM23.3333 21.6884L20.6616 19.005C20.5526 18.8969 20.4233 18.8114 20.2812 18.7533C20.1391 18.6952 19.9869 18.6658 19.8333 18.6667H5.83331C5.52389 18.6667 5.22715 18.5438 5.00836 18.325C4.78956 18.1062 4.66665 17.8095 4.66665 17.5V5.83337C4.66665 5.52395 4.78956 5.22721 5.00836 5.00842C5.22715 4.78962 5.52389 4.66671 5.83331 4.66671H22.1666C22.4761 4.66671 22.7728 4.78962 22.9916 5.00842C23.2104 5.22721 23.3333 5.52395 23.3333 5.83337V21.6884Z" fill="#2C3E50"/>
</svg>
