<svg width="28" height="28" viewBox="0 0 28 28" fill="none" xmlns="http://www.w3.org/2000/svg">
<path d="M14 7.00004C13.8468 7 13.695 7.03015 13.5535 7.08877C13.4119 7.14738 13.2833 7.23332 13.1749 7.34166C13.0666 7.45 12.9807 7.57863 12.922 7.7202C12.8634 7.86176 12.8333 8.01349 12.8333 8.16671V12.8334H10.5C10.1906 12.8334 9.89382 12.9563 9.67503 13.1751C9.45623 13.3939 9.33332 13.6906 9.33332 14C9.33332 14.3095 9.45623 14.6062 9.67503 14.825C9.89382 15.0438 10.1906 15.1667 10.5 15.1667H14C14.1532 15.1667 14.3049 15.1366 14.4465 15.078C14.5881 15.0194 14.7167 14.9334 14.825 14.8251C14.9334 14.7167 15.0193 14.5881 15.0779 14.4466C15.1365 14.305 15.1667 14.1533 15.1667 14V8.16671C15.1667 8.01349 15.1365 7.86176 15.0779 7.7202C15.0193 7.57863 14.9334 7.45 14.825 7.34166C14.7167 7.23332 14.5881 7.14738 14.4465 7.08877C14.3049 7.03015 14.1532 7 14 7.00004ZM14 2.33337C11.6925 2.33337 9.43691 3.01761 7.51833 4.29956C5.59976 5.58151 4.10441 7.4036 3.22139 9.5354C2.33837 11.6672 2.10733 14.013 2.55749 16.2761C3.00765 18.5392 4.11879 20.618 5.75041 22.2496C7.38202 23.8812 9.46082 24.9924 11.7239 25.4425C13.987 25.8927 16.3328 25.6617 18.4646 24.7786C20.5964 23.8956 22.4185 22.4003 23.7005 20.4817C24.9824 18.5631 25.6667 16.3075 25.6667 14C25.6631 10.9069 24.4328 7.94153 22.2457 5.75437C20.0585 3.56721 17.0931 2.33691 14 2.33337ZM14 23.3334C12.154 23.3334 10.3495 22.786 8.81466 21.7604C7.2798 20.7349 6.08353 19.2772 5.37711 17.5718C4.67069 15.8663 4.48586 13.9897 4.84599 12.1792C5.20612 10.3687 6.09503 8.70567 7.40032 7.40038C8.70561 6.09509 10.3687 5.20617 12.1791 4.84605C13.9896 4.48592 15.8663 4.67075 17.5717 5.37717C19.2771 6.08358 20.7348 7.27986 21.7604 8.81472C22.7859 10.3496 23.3333 12.1541 23.3333 14C23.3305 16.4745 22.3462 18.8468 20.5965 20.5966C18.8468 22.3463 16.4745 23.3305 14 23.3334Z" fill="#2C3E50"/>
</svg>
