<svg width="28" height="28" viewBox="0 0 28 28" fill="none" xmlns="http://www.w3.org/2000/svg">
<path d="M17.1733 10.255L12.1683 15.2717L10.2433 13.3467C10.1387 13.2246 10.01 13.1254 9.86528 13.0554C9.72054 12.9853 9.56289 12.946 9.40221 12.9398C9.24154 12.9336 9.08132 12.9606 8.93161 13.0193C8.78189 13.078 8.64592 13.1669 8.53223 13.2806C8.41853 13.3943 8.32956 13.5303 8.27091 13.68C8.21225 13.8297 8.18518 13.9899 8.19139 14.1506C8.19759 14.3113 8.23694 14.4689 8.30697 14.6137C8.377 14.7584 8.47619 14.8871 8.59832 14.9917L11.34 17.745C11.449 17.8532 11.5783 17.9387 11.7204 17.9968C11.8626 18.0548 12.0148 18.0843 12.1683 18.0834C12.4744 18.0821 12.7677 17.9606 12.985 17.745L18.8183 11.9117C18.9277 11.8033 19.0145 11.6742 19.0737 11.532C19.1329 11.3899 19.1634 11.2374 19.1634 11.0834C19.1634 10.9294 19.1329 10.7769 19.0737 10.6347C19.0145 10.4925 18.9277 10.3635 18.8183 10.255C18.5997 10.0377 18.304 9.91578 17.9958 9.91578C17.6876 9.91578 17.3919 10.0377 17.1733 10.255ZM14 2.33337C11.6925 2.33337 9.43691 3.01761 7.51833 4.29956C5.59976 5.58151 4.10441 7.4036 3.22139 9.5354C2.33837 11.6672 2.10733 14.013 2.55749 16.2761C3.00765 18.5392 4.11879 20.618 5.75041 22.2496C7.38202 23.8812 9.46082 24.9924 11.7239 25.4425C13.987 25.8927 16.3328 25.6617 18.4646 24.7786C20.5964 23.8956 22.4185 22.4003 23.7005 20.4817C24.9824 18.5631 25.6667 16.3075 25.6667 14C25.6667 12.468 25.3649 10.9509 24.7786 9.5354C24.1923 8.11994 23.3329 6.83381 22.2496 5.75046C21.1662 4.66711 19.8801 3.80775 18.4646 3.22145C17.0492 2.63514 15.5321 2.33337 14 2.33337ZM14 23.3334C12.154 23.3334 10.3495 22.786 8.81466 21.7604C7.2798 20.7349 6.08353 19.2772 5.37711 17.5718C4.67069 15.8663 4.48586 13.9897 4.84599 12.1792C5.20612 10.3687 6.09503 8.70567 7.40032 7.40038C8.70561 6.09509 10.3687 5.20617 12.1791 4.84605C13.9896 4.48592 15.8663 4.67075 17.5717 5.37717C19.2771 6.08358 20.7348 7.27986 21.7604 8.81472C22.7859 10.3496 23.3333 12.1541 23.3333 14C23.3333 16.4754 22.35 18.8494 20.5996 20.5997C18.8493 22.35 16.4753 23.3334 14 23.3334Z" fill="#2C3E50"/>
</svg>
